<svg id="Capa_1" enable-background="new 0 0 512 512" height="512" viewBox="0 0 512 512" width="512" xmlns="http://www.w3.org/2000/svg"><path d="m256 504.5c-137.243 0-248.5-111.257-248.5-248.5s111.257-248.5 248.5-248.5z" fill="#8eafe2"/><path d="m291.355 469.145c-137.243 0-248.5-111.257-248.5-248.5 0-59.617 21.003-114.323 56.001-157.144-55.756 45.569-91.356 114.873-91.356 192.499 0 137.243 111.257 248.5 248.5 248.5 77.626 0 146.93-35.6 192.5-91.356-42.821 34.998-97.528 56.001-157.145 56.001z" fill="#6a96d7"/><path d="m256 7.5c76.768 0 139 111.257 139 248.5s-62.232 248.5-139 248.5c137.243 0 248.5-111.257 248.5-248.5s-111.257-248.5-248.5-248.5z" fill="#e26e7e"/><ellipse cx="256" cy="256" fill="#e9f8ff" rx="139" ry="248.5"/><path d="m330.24 466.109c-21.479 24.308-46.938 38.391-74.24 38.391 77.626 0 146.93-35.6 192.5-91.356-33.319 27.232-73.833 45.983-118.26 52.965z" fill="#d9495d"/><path d="m291.355 469.145c-49.753 0-96.084-14.631-134.944-39.811 25.25 46.36 60.535 75.166 99.589 75.166 27.302 0 52.761-14.083 74.24-38.391-12.67 1.991-25.655 3.036-38.885 3.036z" fill="#b3e6fd"/><path d="m446.93 85.463c-2.759-3.088-7.501-3.355-10.59-.594-3.088 2.76-3.354 7.501-.594 10.59 39.5 44.194 61.254 101.208 61.254 160.541 0 111.81-76.54 206.071-179.972 233.164 16.199-12.858 31.029-30.945 43.805-53.786 26.869-48.036 41.667-111.74 41.667-179.378s-14.798-131.342-41.667-179.377c-12.771-22.833-27.594-40.913-43.785-53.77 36.391 9.516 70.302 27.486 98.878 52.853 3.096 2.75 7.838 2.467 10.587-.63 2.75-3.098 2.469-7.838-.63-10.588-46.846-41.586-107.179-64.488-169.883-64.488-68.38 0-132.668 26.629-181.02 74.98-48.351 48.353-74.98 112.64-74.98 181.02s26.629 132.667 74.98 181.02c48.352 48.351 112.64 74.98 181.02 74.98s132.668-26.629 181.02-74.98c48.351-48.353 74.98-112.64 74.98-181.02 0-63.025-23.109-123.59-65.07-170.537zm-431.93 170.537c0-111.852 76.597-206.143 180.089-233.195-15.117 11.971-29.056 28.473-41.221 49.113-26.461 44.897-42.14 105.218-44.147 169.849-.129 4.14 3.123 7.601 7.264 7.729 4.187.12 7.6-3.125 7.729-7.264 1.932-62.155 16.875-119.936 42.077-162.699 24.526-41.614 56.208-64.533 89.209-64.533 34.292 0 66.873 24.485 91.742 68.945 25.639 45.835 39.758 106.939 39.758 172.055s-14.119 126.22-39.758 172.055c-24.869 44.46-57.45 68.945-91.742 68.945-33.001 0-64.683-22.919-89.21-64.535-25.202-42.763-40.146-100.543-42.077-162.698-.128-4.139-3.54-7.39-7.729-7.264-4.141.129-7.393 3.589-7.264 7.729 2.008 64.631 17.687 124.952 44.147 169.849 12.165 20.641 26.104 37.142 41.221 49.114-103.491-27.051-180.088-121.343-180.088-233.195z"/><path d="m206.043 263.795c-.04 12.848-13.152 23.222-29.285 23.171s-29.179-10.506-29.139-23.354 13.151-23.222 29.285-23.172c16.133.051 29.179 10.507 29.139 23.355z" fill="#ffa1ac"/><path d="m305.957 264.108c-.04 12.848 13.006 23.304 29.139 23.354 16.133.051 29.245-10.323 29.285-23.171s-13.006-23.304-29.139-23.355c-16.133-.05-29.245 10.324-29.285 23.172z" fill="#ffa1ac"/><path d="m279.608 246.151c.046-14.555-10.495-15.956-23.502-15.997s-23.556 1.294-23.602 15.849c-.045 14.555 10.462 26.387 23.469 26.428 13.008.042 23.589-11.725 23.635-26.28z" fill="#495560"/><path d="m256.043 279.932c-.011-.001-.084 0-.093 0-8.455-.026-16.345-3.681-22.215-10.291-5.658-6.372-8.76-14.775-8.731-23.661.073-23.327 21.438-23.327 30.561-23.327l.564.001c8.109.025 14.62.609 20.036 3.377 5.013 2.562 10.98 8.136 10.942 20.143-.057 18.614-13.994 33.758-31.064 33.758zm-.479-42.279c-14.906 0-15.542 2.567-15.561 8.374-.017 5.193 1.74 10.042 4.947 13.653 2.996 3.374 6.919 5.239 11.046 5.251l.044 7.5.001-7.5c8.826 0 16.033-8.435 16.065-18.804.017-5.316-1.727-6.208-2.769-6.74-2.937-1.5-8.35-1.719-13.257-1.734z"/><path d="m207.84 245.986c-.009 0-.017 0-.024 0-4.143-.013-7.489-3.382-7.477-7.524.006-1.71-.655-3.321-1.861-4.534s-2.812-1.884-4.522-1.89c-.007 0-.014 0-.021 0-3.522 0-6.394 2.86-6.404 6.385-.013 4.134-3.369 7.476-7.499 7.476-.009 0-.017 0-.024 0-4.143-.013-7.489-3.382-7.477-7.524.037-11.779 9.634-21.337 21.403-21.337h.068c5.717.018 11.085 2.261 15.115 6.316 4.03 4.056 6.24 9.438 6.222 15.155-.014 4.135-3.369 7.477-7.499 7.477z"/><path d="m332.129 246.375c-.009 0-.017 0-.024 0-4.143-.013-7.489-3.382-7.477-7.524.006-1.71-.655-3.32-1.861-4.534s-2.813-1.885-4.522-1.89c-.007 0-.014 0-.021 0-3.522 0-6.394 2.86-6.404 6.385-.013 4.134-3.369 7.476-7.499 7.476-.009 0-.017 0-.024 0-4.143-.013-7.489-3.382-7.477-7.524.037-11.779 9.634-21.337 21.403-21.337h.068c5.718.018 11.085 2.262 15.115 6.317 4.03 4.056 6.24 9.438 6.222 15.155-.014 4.134-3.369 7.476-7.499 7.476z"/></svg>