<?xml version="1.0" encoding="iso-8859-1"?>
<!-- Generator: Adobe Illustrator 19.0.0, SVG Export Plug-In . SVG Version: 6.00 Build 0)  -->
<svg version="1.1" id="Layer_1" xmlns="http://www.w3.org/2000/svg" xmlns:xlink="http://www.w3.org/1999/xlink" x="0px" y="0px"
	 viewBox="0 0 512 512" style="enable-background:new 0 0 512 512;" xml:space="preserve">
<rect x="176.099" y="197.125" style="fill:#FFD042;" width="159.803" height="243.91"/>
<rect x="176.099" y="197.125" style="fill:#FFC412;" width="25.232" height="243.91"/>
<path style="fill:#FF9940;" d="M310.669,113.018v46.259h-29.437v-46.259h-50.464v46.259h-29.437v-46.259h-50.464v67.285
	c0,9.291,7.531,16.821,16.821,16.821h176.624c9.291,0,16.821-7.531,16.821-16.821v-67.285H310.669z"/>
<path style="fill:#F5760F;" d="M176.099,180.304v-67.285h-25.232v67.285c0,9.291,7.531,16.821,16.821,16.821h25.232
	C183.629,197.125,176.099,189.595,176.099,180.304z"/>
<polygon style="fill:#FF9940;" points="390.571,239.179 390.571,285.437 361.133,285.437 361.133,239.179 310.669,239.179 
	310.669,285.437 281.232,285.437 281.232,239.179 230.768,239.179 230.768,285.437 201.331,285.437 201.331,239.179 
	150.867,239.179 150.867,285.437 121.429,285.437 121.429,239.179 70.965,239.179 70.965,323.285 441.035,323.285 441.035,239.179 
	"/>
<rect x="70.965" y="323.285" style="fill:#FFD042;" width="370.07" height="180.83"/>
<rect x="70.965" y="239.179" style="fill:#F5760F;" width="25.232" height="84.107"/>
<rect x="70.965" y="323.285" style="fill:#FFC412;" width="25.232" height="180.83"/>
<polygon style="fill:#37C9D4;" points="256,20.501 331.696,42.579 256,62.554 "/>
<path style="fill:#FF9940;" d="M256,356.928c-27.871,0-50.464,22.593-50.464,50.464v96.723h100.928v-96.723
	C306.464,379.521,283.871,356.928,256,356.928z"/>
<path style="fill:#F5760F;" d="M270.719,359.115c-4.657-1.418-9.598-2.187-14.719-2.187c-27.871,0-50.464,22.593-50.464,50.464
	v96.723h29.437v-96.723C234.973,384.642,250.029,365.416,270.719,359.115z"/>
<g>
	<circle style="fill:#FFC412;" cx="134.045" cy="356.928" r="12.616"/>
	<circle style="fill:#FFC412;" cx="356.928" cy="356.928" r="12.616"/>
	<circle style="fill:#FFC412;" cx="411.598" cy="470.472" r="12.616"/>
	<circle style="fill:#FFC412;" cx="348.517" cy="428.419" r="12.616"/>
	<circle style="fill:#FFC412;" cx="415.803" cy="398.982" r="12.616"/>
	<circle style="fill:#FFC412;" cx="171.893" cy="420.008" r="12.616"/>
	<circle style="fill:#FFC412;" cx="117.224" cy="470.472" r="12.616"/>
</g>
<path d="M441.035,231.294h-50.464c-4.356,0-7.885,3.53-7.885,7.885v38.374h-13.667v-38.374c0-4.355-3.529-7.885-7.885-7.885h-17.347
	V205.01h0.526c13.623,0,24.706-11.083,24.706-24.706v-67.285c0-4.355-3.529-7.885-7.885-7.885h-50.464
	c-4.356,0-7.885,3.53-7.885,7.885v38.374h-13.667v-38.374c0-4.355-3.529-7.885-7.885-7.885h-17.347V68.879l69.522-18.603
	c3.46-0.769,5.981-3.751,6.164-7.291c0.183-3.54-2.019-6.766-5.381-7.886l-70.305-20.281V7.885C263.885,3.53,260.356,0,256,0
	s-7.885,3.53-7.885,7.885v97.248h-17.347c-4.356,0-7.885,3.53-7.885,7.885v38.374h-13.667v-38.374c0-4.355-3.529-7.885-7.885-7.885
	h-50.464c-4.356,0-7.885,3.53-7.885,7.885v67.285c0,13.623,11.083,24.706,24.706,24.706h0.526v26.283h-17.347
	c-4.356,0-7.885,3.53-7.885,7.885v38.374h-13.667v-38.374c0-4.355-3.529-7.885-7.885-7.885H70.965c-4.356,0-7.885,3.53-7.885,7.885
	v264.936c0,4.355,3.529,7.885,7.885,7.885h370.07c4.356,0,7.885-3.53,7.885-7.885V239.179
	C448.92,234.824,445.391,231.294,441.035,231.294z M302.196,42.109l-38.311,10.615V31.441L302.196,42.109z M158.752,180.304v-59.4
	h34.694v38.374c0,4.355,3.529,7.885,7.885,7.885h29.437c4.356,0,7.885-3.53,7.885-7.885v-38.374h34.694v38.374
	c0,4.355,3.529,7.885,7.885,7.885h29.437c4.356,0,7.885-3.53,7.885-7.885v-38.374h34.694v59.4c0,4.928-4.009,8.936-8.936,8.936
	H167.688C162.76,189.24,158.752,185.232,158.752,180.304z M183.984,205.01h144.033v26.283h-17.347c-4.356,0-7.885,3.53-7.885,7.885
	v38.374h-13.667v-38.374c0-4.355-3.529-7.885-7.885-7.885h-50.464c-4.356,0-7.885,3.53-7.885,7.885v38.374h-13.667v-38.374
	c0-4.355-3.529-7.885-7.885-7.885h-17.347V205.01z M314.349,496.23v-38.374c0-4.355-3.529-7.885-7.885-7.885
	s-7.885,3.53-7.885,7.885v38.374h-85.158v-88.838c0-23.478,19.101-42.579,42.579-42.579c23.478,0,42.579,19.101,42.579,42.579
	v16.821c0,4.355,3.529,7.885,7.885,7.885s7.885-3.53,7.885-7.885v-16.821c0-32.174-26.175-58.349-58.349-58.349
	s-58.349,26.175-58.349,58.349v88.838H78.85V331.17h278.078c4.356,0,7.885-3.53,7.885-7.885s-3.529-7.885-7.885-7.885H78.85v-68.337
	h34.694v38.374c0,4.355,3.529,7.885,7.885,7.885h29.437c4.356,0,7.885-3.53,7.885-7.885v-38.374h34.694v38.374
	c0,4.355,3.529,7.885,7.885,7.885h29.437c4.356,0,7.885-3.53,7.885-7.885v-38.374h34.694v38.374c0,4.355,3.529,7.885,7.885,7.885
	h29.437c4.356,0,7.885-3.53,7.885-7.885v-38.374h34.694v38.374c0,4.355,3.529,7.885,7.885,7.885h29.437
	c4.356,0,7.885-3.53,7.885-7.885v-38.374h34.694V315.4h-42.579c-4.356,0-7.885,3.53-7.885,7.885s3.529,7.885,7.885,7.885h42.579
	v165.06H314.349z"/>
<g>
</g>
<g>
</g>
<g>
</g>
<g>
</g>
<g>
</g>
<g>
</g>
<g>
</g>
<g>
</g>
<g>
</g>
<g>
</g>
<g>
</g>
<g>
</g>
<g>
</g>
<g>
</g>
<g>
</g>
</svg>
